<?xml version="1.0" ?>
<!-- Uploaded to: SVG Repo, www.svgrepo.com, Generator: SVG Repo Mixer Tools -->
<svg width="800px" height="800px" viewBox="0 0 24 24" version="1.1" xml:space="preserve" xmlns="http://www.w3.org/2000/svg" xmlns:xlink="http://www.w3.org/1999/xlink">
<style type="text/css">
	.st0{display:none;}
	.st1{display:inline;}
	.st2{opacity:0.2;fill:none;stroke:#000000;stroke-width:5.000000e-02;stroke-miterlimit:10;}
</style>
<g class="st0" id="grid_system"/>
<g id="_icons">
<path d="M20.5,13.6c0.7-0.2,1.1-0.9,1.1-1.6s-0.4-1.3-1.1-1.6L20,10.2l0.5-0.2c0.7-0.2,1.1-0.9,1.1-1.6c0-0.7-0.4-1.3-1.1-1.6   l-7.9-2.8c-0.4-0.2-0.8-0.2-1.2,0l-8,2.8C2.8,7.1,2.4,7.8,2.4,8.5c0,0.7,0.4,1.3,1.1,1.6L4,10.2l-0.5,0.2c-0.7,0.2-1.1,0.9-1.1,1.6   s0.4,1.3,1.1,1.6L4,13.8l-0.5,0.2c-0.7,0.2-1.1,0.9-1.1,1.6c0,0.7,0.4,1.3,1.1,1.6l7.9,2.8C11.6,20,11.8,20,12,20   c0.2,0,0.4,0,0.5-0.1l8-2.8c0.7-0.2,1.1-0.9,1.1-1.6c0-0.7-0.4-1.3-1.1-1.6L20,13.8L20.5,13.6C20.5,13.6,20.5,13.6,20.5,13.6z    M12,6l7,2.5l-7,2.5L5,8.5L12,6z M12,18l-7-2.5l2-0.7l4.4,1.5c0.1,0,0.2,0.1,0.3,0.1c0,0,0.1,0,0.1,0c0.1,0,0.2,0,0.2,0   c0,0,0,0,0,0c0,0,0,0,0,0c0.2,0,0.4,0,0.5-0.1l4.4-1.6l2,0.7L12,18z M12,14.5L5,12l2-0.7l4.4,1.5c0.1,0,0.2,0.1,0.3,0.1   c0,0,0.1,0,0.1,0c0.1,0,0.2,0,0.2,0c0,0,0,0,0,0c0,0,0,0,0,0c0.2,0,0.4,0,0.5-0.1l4.4-1.6l2,0.7L12,14.5z"/>
</g>
</svg>